<svg id="svg" xmlns="http://www.w3.org/2000/svg" xmlns:xlink="http://www.w3.org/1999/xlink" width="400" height="131.10995310057322" viewBox="0, 0, 400,131.10995310057322"><g id="svgg"><path id="path0" d="M19.000 9.437 C 14.980 9.895,12.954 10.937,11.909 13.083 L 11.503 13.917 11.502 61.751 L 11.500 109.586 11.928 110.418 C 14.608 115.633,27.054 115.574,29.558 110.333 L 29.917 109.583 29.961 88.375 L 30.005 67.167 46.332 67.167 L 62.659 67.167 62.705 88.458 C 62.754 111.594,62.684 109.906,63.655 111.345 C 64.399 112.449,66.450 113.452,69.377 114.145 C 73.014 115.006,78.781 113.374,80.322 111.048 C 80.600 110.628,80.885 110.015,80.955 109.684 C 81.274 108.187,81.102 13.964,80.778 13.126 C 79.936 10.944,76.140 9.315,71.896 9.315 C 70.696 9.315,70.437 9.343,68.333 9.699 C 66.937 9.935,64.668 11.010,63.902 11.798 C 62.661 13.076,62.759 11.386,62.667 33.083 L 62.583 52.583 46.294 52.626 L 30.005 52.668 29.961 33.209 L 29.917 13.750 29.543 12.979 C 28.512 10.851,26.166 9.816,21.167 9.282 C 20.938 9.258,19.962 9.328,19.000 9.437 M106.250 9.278 C 102.538 9.753,100.342 10.875,99.245 12.857 L 98.750 13.750 98.750 61.833 L 98.750 109.917 99.236 110.795 C 100.067 112.293,101.569 113.302,103.902 113.927 L 105.417 114.332 132.167 114.334 C 162.304 114.335,159.779 114.447,161.350 113.036 C 164.995 109.762,164.502 101.223,160.528 98.815 L 159.596 98.250 138.423 98.167 L 117.250 98.083 117.207 83.549 L 117.165 69.015 128.791 68.966 C 138.993 68.923,140.502 68.884,141.113 68.649 C 145.425 66.989,146.299 59.161,142.544 55.828 C 141.051 54.502,141.970 54.589,128.875 54.533 L 117.167 54.483 117.167 39.997 L 117.167 25.510 138.208 25.463 C 155.727 25.424,159.348 25.377,159.833 25.184 C 165.187 23.052,165.089 11.328,159.703 9.565 C 158.818 9.275,108.386 9.005,106.250 9.278 M183.027 9.374 C 179.078 9.737,176.581 10.910,175.536 12.892 L 175.083 13.750 175.083 61.667 L 175.083 109.583 175.533 110.543 C 176.296 112.171,177.943 113.326,180.436 113.982 L 181.789 114.338 205.936 114.294 L 230.083 114.250 230.750 113.891 C 235.647 111.257,235.315 100.231,230.281 98.343 C 229.962 98.223,224.018 98.167,211.739 98.167 C 201.799 98.167,193.649 98.148,193.626 98.125 C 193.604 98.102,193.548 79.071,193.501 55.833 C 193.407 8.579,193.539 13.100,192.212 11.733 C 191.594 11.096,191.322 10.933,189.667 10.205 C 188.249 9.582,185.080 9.185,183.027 9.374 M252.333 9.280 C 248.423 9.682,245.782 11.269,245.057 13.651 C 244.696 14.837,244.728 108.917,245.089 110.134 C 245.581 111.790,247.400 113.186,250.031 113.925 L 251.496 114.337 278.540 114.294 L 305.583 114.250 306.425 113.806 C 311.056 111.362,311.126 101.410,306.531 98.709 L 305.750 98.250 284.542 98.206 L 263.333 98.162 263.333 83.588 L 263.333 69.015 274.958 68.963 C 287.542 68.906,287.018 68.945,288.446 67.974 C 291.104 66.168,291.986 59.694,289.898 57.320 C 289.771 57.175,289.667 56.975,289.667 56.875 C 289.667 56.567,287.864 55.067,287.205 54.827 C 286.709 54.646,284.232 54.589,274.958 54.542 L 263.333 54.483 263.333 39.997 L 263.333 25.510 284.375 25.463 L 305.417 25.417 306.193 25.058 C 311.780 22.475,310.989 10.800,305.133 9.419 C 304.163 9.190,254.478 9.059,252.333 9.280 " stroke="none" fill="#4e3017" fill-rule="evenodd"></path><path id="path1" d="M0.000 65.500 L 0.000 131.000 200.000 131.000 L 400.000 131.000 400.000 65.500 L 400.000 0.000 200.000 0.000 L 0.000 0.000 0.000 65.500 M24.114 9.411 C 27.009 10.034,28.962 11.224,29.727 12.833 C 30.083 13.583,30.083 13.592,30.167 33.000 L 30.250 52.417 46.375 52.459 L 62.500 52.502 62.502 33.126 L 62.503 13.750 62.910 12.917 C 65.336 7.940,78.059 7.765,80.750 12.672 L 81.250 13.583 81.250 61.750 L 81.250 109.917 80.793 110.694 C 79.450 112.979,75.911 114.500,71.942 114.500 C 67.396 114.499,64.208 113.054,62.855 110.382 L 62.500 109.680 62.500 88.507 L 62.500 67.333 46.337 67.333 L 30.174 67.333 30.129 88.542 L 30.083 109.750 29.729 110.500 C 27.132 115.995,13.651 115.726,11.579 110.138 C 11.066 108.755,11.060 14.574,11.573 13.250 C 12.126 11.821,13.383 10.666,14.928 10.168 C 15.288 10.052,15.667 9.890,15.770 9.809 C 16.507 9.227,22.034 8.963,24.114 9.411 M159.884 9.368 C 164.784 10.836,165.499 21.866,160.885 24.795 C 159.472 25.691,160.169 25.665,138.125 25.666 L 117.500 25.667 117.500 40.000 L 117.500 54.333 128.887 54.333 C 141.697 54.333,141.124 54.281,142.615 55.585 C 146.425 58.918,145.803 66.595,141.554 68.688 L 140.750 69.083 129.127 69.130 L 117.504 69.177 117.460 83.369 C 117.425 94.987,117.457 97.600,117.638 97.781 C 117.820 97.962,121.577 98.002,138.587 97.999 L 159.314 97.995 160.247 98.437 C 165.774 101.054,165.071 113.072,159.317 114.347 C 157.481 114.754,106.270 114.681,104.333 114.269 C 101.709 113.710,99.692 112.320,98.897 110.524 L 98.500 109.625 98.499 61.854 C 98.498 7.649,98.338 13.199,99.949 11.545 C 100.854 10.616,101.969 10.012,103.750 9.486 C 105.026 9.109,158.643 8.997,159.884 9.368 M187.694 9.409 C 190.654 9.995,192.644 11.308,193.466 13.216 C 193.621 13.576,193.667 23.304,193.667 55.738 L 193.667 97.794 194.042 97.895 C 194.248 97.950,202.413 97.996,212.187 97.998 C 232.560 98.000,230.751 97.856,232.306 99.600 C 235.937 103.675,234.865 112.493,230.533 114.187 L 229.583 114.558 205.833 114.567 C 183.824 114.575,181.986 114.555,180.758 114.285 C 178.222 113.727,176.248 112.442,175.368 110.773 L 174.917 109.917 174.917 61.750 L 174.917 13.583 175.359 12.750 C 176.864 9.918,182.524 8.385,187.694 9.409 M306.453 9.591 C 310.844 11.779,311.527 20.700,307.580 24.307 C 305.982 25.767,307.715 25.667,284.220 25.667 L 263.500 25.667 263.500 39.996 L 263.500 54.325 275.208 54.371 C 286.286 54.414,286.951 54.434,287.548 54.730 C 292.350 57.116,292.550 66.229,287.853 68.609 L 286.917 69.083 275.208 69.130 L 263.500 69.177 263.500 83.488 C 263.500 96.383,263.526 97.808,263.764 97.899 C 263.909 97.954,273.349 98.000,284.742 98.000 C 304.982 98.000,305.474 98.008,306.187 98.328 C 311.689 100.800,311.432 112.394,305.833 114.275 C 304.956 114.570,303.764 114.583,278.250 114.570 L 251.583 114.557 250.109 114.193 C 247.711 113.601,246.056 112.466,245.147 110.790 L 244.583 109.750 244.583 61.833 L 244.583 13.917 244.948 13.128 C 245.712 11.474,247.417 10.224,249.917 9.486 C 250.855 9.209,252.597 9.190,278.259 9.179 L 305.601 9.167 306.453 9.591 M358.417 9.416 C 374.367 11.227,383.484 19.666,385.956 34.907 L 386.390 37.583 386.456 59.750 C 386.536 86.658,386.439 88.954,385.001 94.167 C 381.888 105.452,373.200 112.718,360.500 114.657 C 359.813 114.762,359.081 114.884,358.875 114.927 L 358.500 115.006 358.500 119.806 C 358.500 124.938,358.375 126.180,357.749 127.260 C 355.334 131.426,348.595 130.985,346.805 126.544 C 346.433 125.621,346.416 125.379,346.367 120.300 C 346.310 114.362,346.464 114.952,344.917 114.755 C 336.424 113.674,329.144 109.866,324.883 104.278 C 322.975 101.776,320.167 95.915,320.167 94.437 C 320.167 94.295,320.056 93.852,319.920 93.453 C 319.785 93.054,319.466 91.458,319.212 89.906 L 318.750 87.083 318.750 62.583 C 318.750 37.046,318.731 37.857,319.447 33.333 C 322.130 16.395,337.391 7.028,358.417 9.416 M350.333 25.765 C 343.163 26.613,339.256 30.291,338.008 37.370 C 337.675 39.262,337.667 39.851,337.672 62.362 L 337.678 85.417 338.066 87.333 C 339.063 92.262,341.356 95.389,345.279 97.168 L 346.333 97.646 346.333 93.565 C 346.333 88.684,346.493 87.763,347.569 86.444 C 350.105 83.332,356.083 83.735,357.817 87.135 C 358.355 88.189,358.500 89.567,358.500 93.614 C 358.500 95.751,358.556 97.500,358.625 97.499 C 358.907 97.497,360.636 96.703,361.358 96.243 C 364.577 94.195,366.330 91.264,367.246 86.400 C 367.466 85.232,367.500 81.985,367.500 62.259 L 367.500 39.468 367.074 37.317 C 365.446 29.100,359.109 24.728,350.333 25.765 " stroke="none" fill="#fbfbfb" fill-rule="evenodd"></path><path id="path2" d="M18.375 9.282 C 18.535 9.323,18.798 9.323,18.958 9.282 C 19.119 9.240,18.987 9.205,18.667 9.205 C 18.346 9.205,18.215 9.240,18.375 9.282 M22.542 9.282 C 22.702 9.323,22.965 9.323,23.125 9.282 C 23.285 9.240,23.154 9.205,22.833 9.205 C 22.512 9.205,22.381 9.240,22.542 9.282 M69.542 9.282 C 69.702 9.323,69.965 9.323,70.125 9.282 C 70.285 9.240,70.154 9.205,69.833 9.205 C 69.512 9.205,69.381 9.240,69.542 9.282 M186.042 9.282 C 186.202 9.323,186.465 9.323,186.625 9.282 C 186.785 9.240,186.654 9.205,186.333 9.205 C 186.012 9.205,185.881 9.240,186.042 9.282 M348.625 9.287 C 348.923 9.324,349.410 9.324,349.708 9.287 C 350.006 9.250,349.762 9.220,349.167 9.220 C 348.571 9.220,348.327 9.250,348.625 9.287 M355.292 9.287 C 355.590 9.324,356.077 9.324,356.375 9.287 C 356.673 9.250,356.429 9.220,355.833 9.220 C 355.238 9.220,354.994 9.250,355.292 9.287 M345.294 9.618 C 345.501 9.658,345.801 9.656,345.960 9.615 C 346.120 9.573,345.950 9.540,345.583 9.542 C 345.217 9.544,345.086 9.578,345.294 9.618 M359.127 9.618 C 359.334 9.658,359.634 9.656,359.794 9.615 C 359.953 9.573,359.783 9.540,359.417 9.542 C 359.050 9.544,358.920 9.578,359.127 9.618 M101.292 10.429 C 100.645 10.779,100.719 10.900,101.375 10.566 C 102.003 10.247,102.114 10.164,101.903 10.173 C 101.819 10.177,101.544 10.292,101.292 10.429 M247.500 10.417 C 247.271 10.548,247.158 10.655,247.250 10.655 C 247.342 10.655,247.604 10.548,247.833 10.417 C 248.063 10.286,248.175 10.178,248.083 10.178 C 247.992 10.178,247.729 10.286,247.500 10.417 M162.186 11.242 C 162.333 11.430,162.537 11.733,162.639 11.917 C 162.740 12.100,162.825 12.157,162.828 12.044 C 162.831 11.931,162.627 11.628,162.375 11.370 C 162.123 11.112,162.038 11.054,162.186 11.242 M28.770 11.660 C 29.056 11.984,29.372 12.400,29.473 12.583 C 29.574 12.767,29.659 12.819,29.662 12.699 C 29.664 12.579,29.348 12.163,28.958 11.775 C 28.481 11.299,28.419 11.262,28.770 11.660 M99.906 11.542 L 99.417 12.083 99.958 11.594 C 100.256 11.325,100.500 11.081,100.500 11.052 C 100.500 10.923,100.362 11.037,99.906 11.542 M176.158 11.625 L 175.583 12.250 176.208 11.676 C 176.790 11.141,176.910 11.000,176.783 11.000 C 176.755 11.000,176.474 11.281,176.158 11.625 M246.073 11.542 L 245.583 12.083 246.125 11.594 C 246.630 11.138,246.743 11.000,246.615 11.000 C 246.586 11.000,246.342 11.244,246.073 11.542 M79.500 11.219 C 79.500 11.248,79.744 11.491,80.042 11.760 L 80.583 12.250 80.094 11.708 C 79.638 11.203,79.500 11.090,79.500 11.219 M174.872 14.500 C 174.872 14.821,174.906 14.952,174.948 14.792 C 174.990 14.631,174.990 14.369,174.948 14.208 C 174.906 14.048,174.872 14.179,174.872 14.500 M30.040 33.365 C 30.018 43.787,30.056 52.348,30.125 52.391 C 30.238 52.461,30.237 39.255,30.123 21.250 C 30.099 17.492,30.062 22.943,30.040 33.365 M11.249 61.750 C 11.249 87.600,11.268 98.150,11.292 85.195 C 11.315 72.240,11.315 51.090,11.292 38.195 C 11.268 25.300,11.249 35.900,11.249 61.750 M244.582 61.833 C 244.582 87.638,244.601 98.194,244.625 85.292 C 244.649 72.390,244.649 51.277,244.625 38.375 C 244.601 25.473,244.582 36.029,244.582 61.833 M326.746 18.208 L 325.417 19.583 326.792 18.254 C 328.069 17.019,328.243 16.833,328.121 16.833 C 328.096 16.833,327.477 17.452,326.746 18.208 M117.413 40.000 C 117.413 47.929,117.433 51.173,117.458 47.208 C 117.483 43.244,117.483 36.756,117.458 32.792 C 117.433 28.827,117.413 32.071,117.413 40.000 M350.042 25.782 C 350.202 25.823,350.465 25.823,350.625 25.782 C 350.785 25.740,350.654 25.705,350.333 25.705 C 350.012 25.705,349.881 25.740,350.042 25.782 M354.208 25.782 C 354.369 25.823,354.631 25.823,354.792 25.782 C 354.952 25.740,354.821 25.705,354.500 25.705 C 354.179 25.705,354.048 25.740,354.208 25.782 M383.512 26.083 C 383.512 26.175,383.619 26.438,383.750 26.667 C 383.881 26.896,383.988 27.008,383.988 26.917 C 383.988 26.825,383.881 26.563,383.750 26.333 C 383.619 26.104,383.512 25.992,383.512 26.083 M341.573 29.375 L 341.083 29.917 341.625 29.427 C 342.130 28.971,342.243 28.833,342.115 28.833 C 342.086 28.833,341.842 29.077,341.573 29.375 M363.000 29.219 C 363.000 29.248,363.244 29.491,363.542 29.760 L 364.083 30.250 363.594 29.708 C 363.138 29.203,363.000 29.090,363.000 29.219 M319.750 31.500 C 319.687 31.788,319.670 32.059,319.712 32.101 C 319.755 32.143,319.837 31.939,319.896 31.646 C 320.035 30.951,319.900 30.816,319.750 31.500 M318.879 37.667 C 318.879 38.079,318.911 38.248,318.951 38.042 C 318.991 37.835,318.991 37.498,318.951 37.292 C 318.911 37.085,318.879 37.254,318.879 37.667 M386.212 37.833 C 386.212 38.246,386.245 38.415,386.284 38.208 C 386.324 38.002,386.324 37.665,386.284 37.458 C 386.245 37.252,386.212 37.421,386.212 37.833 M318.748 62.583 C 318.748 75.233,318.767 80.433,318.792 74.138 C 318.816 67.843,318.816 57.493,318.792 51.138 C 318.767 44.783,318.748 49.933,318.748 62.583 M337.581 62.250 C 337.581 74.258,337.601 79.146,337.625 73.112 C 337.649 67.078,337.649 57.253,337.625 51.279 C 337.601 45.305,337.581 50.242,337.581 62.250 M367.581 62.000 C 367.581 73.871,367.601 78.727,367.625 72.792 C 367.649 66.856,367.649 57.144,367.625 51.208 C 367.601 45.273,367.581 50.129,367.581 62.000 M386.414 62.083 C 386.414 74.000,386.434 78.850,386.458 72.862 C 386.483 66.874,386.483 57.124,386.458 51.195 C 386.434 45.267,386.414 50.167,386.414 62.083 M139.708 54.448 C 139.869 54.490,140.131 54.490,140.292 54.448 C 140.452 54.406,140.321 54.372,140.000 54.372 C 139.679 54.372,139.548 54.406,139.708 54.448 M286.833 54.556 C 286.833 54.599,287.075 54.718,287.371 54.822 C 287.667 54.925,287.836 54.940,287.746 54.857 C 287.556 54.679,286.833 54.441,286.833 54.556 M142.917 56.000 C 143.275 56.367,143.605 56.667,143.651 56.667 C 143.697 56.667,143.441 56.367,143.083 56.000 C 142.725 55.633,142.395 55.333,142.349 55.333 C 142.303 55.333,142.559 55.633,142.917 56.000 M289.159 56.083 C 289.561 56.542,289.925 56.954,289.968 57.000 C 290.010 57.046,289.966 56.933,289.870 56.750 C 289.773 56.567,289.409 56.154,289.061 55.833 C 288.460 55.279,288.465 55.291,289.159 56.083 M145.048 60.917 C 145.049 61.375,145.081 61.543,145.120 61.289 C 145.158 61.036,145.157 60.661,145.117 60.456 C 145.078 60.251,145.046 60.458,145.048 60.917 M291.223 62.000 C 291.223 62.688,291.252 62.969,291.288 62.625 C 291.324 62.281,291.324 61.719,291.288 61.375 C 291.252 61.031,291.223 61.313,291.223 62.000 M145.048 62.750 C 145.049 63.208,145.081 63.376,145.120 63.123 C 145.158 62.869,145.157 62.494,145.117 62.289 C 145.078 62.084,145.046 62.292,145.048 62.750 M30.081 88.167 C 30.081 99.671,30.101 104.377,30.125 98.625 C 30.149 92.873,30.149 83.460,30.125 77.708 C 30.101 71.956,30.081 76.662,30.081 88.167 M117.413 83.250 C 117.413 91.042,117.433 94.205,117.458 90.279 C 117.483 86.354,117.483 79.979,117.458 76.113 C 117.433 72.246,117.413 75.458,117.413 83.250 M347.906 86.042 L 347.417 86.583 347.958 86.094 C 348.463 85.638,348.577 85.500,348.448 85.500 C 348.419 85.500,348.175 85.744,347.906 86.042 M386.214 86.250 C 386.216 86.708,386.248 86.876,386.286 86.623 C 386.325 86.369,386.324 85.994,386.284 85.789 C 386.244 85.584,386.213 85.792,386.214 86.250 M318.879 87.000 C 318.879 87.412,318.911 87.581,318.951 87.375 C 318.991 87.169,318.991 86.831,318.951 86.625 C 318.911 86.419,318.879 86.587,318.879 87.000 M386.039 88.000 C 386.039 88.321,386.073 88.452,386.115 88.292 C 386.157 88.131,386.157 87.869,386.115 87.708 C 386.073 87.548,386.039 87.679,386.039 88.000 M346.406 93.417 C 346.406 95.800,346.429 96.752,346.458 95.532 C 346.486 94.312,346.486 92.362,346.458 91.198 C 346.429 90.035,346.406 91.033,346.406 93.417 M358.372 93.458 C 358.336 97.371,358.354 97.666,358.625 97.664 C 358.830 97.662,358.855 97.623,358.711 97.531 C 358.560 97.435,358.493 96.328,358.458 93.325 L 358.410 89.250 358.372 93.458 M319.669 92.597 C 319.671 92.773,319.748 93.029,319.841 93.167 C 319.964 93.349,319.980 93.282,319.898 92.917 C 319.761 92.304,319.666 92.171,319.669 92.597 M161.000 98.885 C 161.000 98.914,161.244 99.158,161.542 99.427 L 162.083 99.917 161.594 99.375 C 161.138 98.870,161.000 98.757,161.000 98.885 M233.116 100.915 C 233.268 101.234,233.423 101.466,233.459 101.430 C 233.535 101.354,233.029 100.333,232.915 100.333 C 232.873 100.333,232.963 100.595,233.116 100.915 M378.163 106.125 L 376.750 107.583 378.208 106.170 C 379.010 105.393,379.667 104.737,379.667 104.712 C 379.667 104.591,379.475 104.771,378.163 106.125 M326.667 106.417 C 327.257 107.013,327.778 107.500,327.824 107.500 C 327.870 107.500,327.424 107.013,326.833 106.417 C 326.243 105.821,325.722 105.333,325.676 105.333 C 325.630 105.333,326.076 105.821,326.667 106.417 M310.039 107.500 C 310.039 107.821,310.073 107.952,310.115 107.792 C 310.157 107.631,310.157 107.369,310.115 107.208 C 310.073 107.048,310.039 107.179,310.039 107.500 M98.539 109.333 C 98.539 109.654,98.573 109.785,98.615 109.625 C 98.657 109.465,98.657 109.202,98.615 109.042 C 98.573 108.881,98.539 109.013,98.539 109.333 M80.860 110.257 C 80.581 110.870,80.634 111.001,80.936 110.444 C 81.077 110.183,81.162 109.939,81.123 109.901 C 81.085 109.863,80.967 110.023,80.860 110.257 M233.116 111.585 C 232.963 111.905,232.873 112.167,232.915 112.167 C 233.029 112.167,233.535 111.146,233.459 111.070 C 233.423 111.034,233.268 111.266,233.116 111.585 M308.783 111.585 C 308.630 111.905,308.540 112.167,308.582 112.167 C 308.696 112.167,309.202 111.146,309.125 111.070 C 309.089 111.034,308.935 111.266,308.783 111.585 M161.740 112.875 L 161.250 113.417 161.792 112.927 C 162.090 112.658,162.333 112.414,162.333 112.385 C 162.333 112.257,162.196 112.370,161.740 112.875 M307.906 112.875 L 307.417 113.417 307.958 112.927 C 308.463 112.471,308.577 112.333,308.448 112.333 C 308.419 112.333,308.175 112.577,307.906 112.875 M248.089 113.510 C 248.186 113.666,249.327 114.062,249.419 113.970 C 249.453 113.936,249.150 113.788,248.745 113.642 C 248.339 113.497,248.044 113.437,248.089 113.510 M15.917 113.833 C 16.100 113.912,16.362 113.977,16.500 113.977 C 16.658 113.977,16.627 113.924,16.417 113.833 C 16.233 113.755,15.971 113.690,15.833 113.690 C 15.676 113.690,15.707 113.743,15.917 113.833 M24.917 113.833 C 24.707 113.924,24.676 113.977,24.833 113.977 C 24.971 113.977,25.233 113.912,25.417 113.833 C 25.627 113.743,25.658 113.690,25.500 113.690 C 25.363 113.690,25.100 113.755,24.917 113.833 M76.083 113.833 C 75.873 113.924,75.842 113.977,76.000 113.977 C 76.137 113.977,76.400 113.912,76.583 113.833 C 76.793 113.743,76.824 113.690,76.667 113.690 C 76.529 113.690,76.267 113.755,76.083 113.833 M18.958 114.451 C 19.165 114.491,19.502 114.491,19.708 114.451 C 19.915 114.411,19.746 114.379,19.333 114.379 C 18.921 114.379,18.752 114.411,18.958 114.451 M21.625 114.451 C 21.831 114.491,22.169 114.491,22.375 114.451 C 22.581 114.411,22.412 114.379,22.000 114.379 C 21.587 114.379,21.419 114.411,21.625 114.451 M70.294 114.451 C 70.501 114.491,70.801 114.490,70.960 114.448 C 71.120 114.406,70.950 114.374,70.583 114.375 C 70.217 114.377,70.086 114.411,70.294 114.451 M72.792 114.451 C 72.998 114.491,73.335 114.491,73.542 114.451 C 73.748 114.411,73.579 114.379,73.167 114.379 C 72.754 114.379,72.585 114.411,72.792 114.451 M105.375 114.448 C 105.535 114.490,105.798 114.490,105.958 114.448 C 106.119 114.406,105.987 114.372,105.667 114.372 C 105.346 114.372,105.215 114.406,105.375 114.448 M181.708 114.448 C 181.869 114.490,182.131 114.490,182.292 114.448 C 182.452 114.406,182.321 114.372,182.000 114.372 C 181.679 114.372,181.548 114.406,181.708 114.448 M251.460 114.451 C 251.668 114.491,251.968 114.490,252.127 114.448 C 252.286 114.406,252.117 114.374,251.750 114.375 C 251.383 114.377,251.253 114.411,251.460 114.451 M107.127 114.618 C 107.334 114.658,107.634 114.656,107.794 114.615 C 107.953 114.573,107.783 114.540,107.417 114.542 C 107.050 114.544,106.920 114.578,107.127 114.618 M112.792 114.618 C 112.998 114.657,113.335 114.657,113.542 114.618 C 113.748 114.578,113.579 114.545,113.167 114.545 C 112.754 114.545,112.585 114.578,112.792 114.618 M116.125 114.618 C 116.331 114.657,116.669 114.657,116.875 114.618 C 117.081 114.578,116.912 114.545,116.500 114.545 C 116.087 114.545,115.919 114.578,116.125 114.618 M119.458 114.618 C 119.665 114.657,120.002 114.657,120.208 114.618 C 120.415 114.578,120.246 114.545,119.833 114.545 C 119.421 114.545,119.252 114.578,119.458 114.618 M122.792 114.618 C 122.998 114.657,123.335 114.657,123.542 114.618 C 123.748 114.578,123.579 114.545,123.167 114.545 C 122.754 114.545,122.585 114.578,122.792 114.618 M126.125 114.618 C 126.331 114.657,126.669 114.657,126.875 114.618 C 127.081 114.578,126.912 114.545,126.500 114.545 C 126.087 114.545,125.919 114.578,126.125 114.618 M129.458 114.618 C 129.665 114.657,130.002 114.657,130.208 114.618 C 130.415 114.578,130.246 114.545,129.833 114.545 C 129.421 114.545,129.252 114.578,129.458 114.618 M132.792 114.618 C 132.998 114.657,133.335 114.657,133.542 114.618 C 133.748 114.578,133.579 114.545,133.167 114.545 C 132.754 114.545,132.585 114.578,132.792 114.618 M136.125 114.618 C 136.331 114.657,136.669 114.657,136.875 114.618 C 137.081 114.578,136.912 114.545,136.500 114.545 C 136.087 114.545,135.919 114.578,136.125 114.618 M139.458 114.618 C 139.665 114.657,140.002 114.657,140.208 114.618 C 140.415 114.578,140.246 114.545,139.833 114.545 C 139.421 114.545,139.252 114.578,139.458 114.618 M142.792 114.618 C 142.998 114.657,143.335 114.657,143.542 114.618 C 143.748 114.578,143.579 114.545,143.167 114.545 C 142.754 114.545,142.585 114.578,142.792 114.618 M146.125 114.618 C 146.331 114.657,146.669 114.657,146.875 114.618 C 147.081 114.578,146.912 114.545,146.500 114.545 C 146.087 114.545,145.919 114.578,146.125 114.618 M149.458 114.618 C 149.665 114.657,150.002 114.657,150.208 114.618 C 150.415 114.578,150.246 114.545,149.833 114.545 C 149.421 114.545,149.252 114.578,149.458 114.618 M152.792 114.618 C 152.998 114.657,153.335 114.657,153.542 114.618 C 153.748 114.578,153.579 114.545,153.167 114.545 C 152.754 114.545,152.585 114.578,152.792 114.618 M156.125 114.618 C 156.331 114.657,156.669 114.657,156.875 114.618 C 157.081 114.578,156.912 114.545,156.500 114.545 C 156.087 114.545,155.919 114.578,156.125 114.618 M186.125 114.618 C 186.331 114.657,186.669 114.657,186.875 114.618 C 187.081 114.578,186.912 114.545,186.500 114.545 C 186.088 114.545,185.919 114.578,186.125 114.618 M189.458 114.618 C 189.665 114.657,190.002 114.657,190.208 114.618 C 190.415 114.578,190.246 114.545,189.833 114.545 C 189.421 114.545,189.252 114.578,189.458 114.618 M192.792 114.618 C 192.998 114.657,193.335 114.657,193.542 114.618 C 193.748 114.578,193.579 114.545,193.167 114.545 C 192.754 114.545,192.585 114.578,192.792 114.618 M196.125 114.618 C 196.331 114.657,196.669 114.657,196.875 114.618 C 197.081 114.578,196.912 114.545,196.500 114.545 C 196.088 114.545,195.919 114.578,196.125 114.618 M199.458 114.618 C 199.665 114.657,200.002 114.657,200.208 114.618 C 200.415 114.578,200.246 114.545,199.833 114.545 C 199.421 114.545,199.252 114.578,199.458 114.618 M202.792 114.618 C 202.998 114.657,203.335 114.657,203.542 114.618 C 203.748 114.578,203.579 114.545,203.167 114.545 C 202.754 114.545,202.585 114.578,202.792 114.618 M206.125 114.618 C 206.331 114.657,206.669 114.657,206.875 114.618 C 207.081 114.578,206.912 114.545,206.500 114.545 C 206.088 114.545,205.919 114.578,206.125 114.618 M209.458 114.618 C 209.665 114.657,210.002 114.657,210.208 114.618 C 210.415 114.578,210.246 114.545,209.833 114.545 C 209.421 114.545,209.252 114.578,209.458 114.618 M212.960 114.618 C 213.168 114.658,213.468 114.656,213.627 114.615 C 213.786 114.573,213.617 114.540,213.250 114.542 C 212.883 114.544,212.753 114.578,212.960 114.618 M216.294 114.618 C 216.501 114.658,216.801 114.656,216.960 114.615 C 217.120 114.573,216.950 114.540,216.583 114.542 C 216.217 114.544,216.086 114.578,216.294 114.618 M219.627 114.618 C 219.834 114.658,220.134 114.656,220.294 114.615 C 220.453 114.573,220.283 114.540,219.917 114.542 C 219.550 114.544,219.420 114.578,219.627 114.618 M222.960 114.618 C 223.168 114.658,223.468 114.656,223.627 114.615 C 223.786 114.573,223.617 114.540,223.250 114.542 C 222.883 114.544,222.753 114.578,222.960 114.618 M226.294 114.618 C 226.501 114.658,226.801 114.656,226.960 114.615 C 227.120 114.573,226.950 114.540,226.583 114.542 C 226.217 114.544,226.086 114.578,226.294 114.618 M256.292 114.618 C 256.498 114.657,256.835 114.657,257.042 114.618 C 257.248 114.578,257.079 114.545,256.667 114.545 C 256.254 114.545,256.085 114.578,256.292 114.618 M259.625 114.618 C 259.831 114.657,260.169 114.657,260.375 114.618 C 260.581 114.578,260.412 114.545,260.000 114.545 C 259.587 114.545,259.419 114.578,259.625 114.618 M262.958 114.618 C 263.165 114.657,263.502 114.657,263.708 114.618 C 263.915 114.578,263.746 114.545,263.333 114.545 C 262.921 114.545,262.752 114.578,262.958 114.618 M266.292 114.618 C 266.498 114.657,266.835 114.657,267.042 114.618 C 267.248 114.578,267.079 114.545,266.667 114.545 C 266.254 114.545,266.085 114.578,266.292 114.618 M269.625 114.618 C 269.831 114.657,270.169 114.657,270.375 114.618 C 270.581 114.578,270.412 114.545,270.000 114.545 C 269.587 114.545,269.419 114.578,269.625 114.618 M272.958 114.618 C 273.165 114.657,273.502 114.657,273.708 114.618 C 273.915 114.578,273.746 114.545,273.333 114.545 C 272.921 114.545,272.752 114.578,272.958 114.618 M276.292 114.618 C 276.498 114.657,276.835 114.657,277.042 114.618 C 277.248 114.578,277.079 114.545,276.667 114.545 C 276.254 114.545,276.085 114.578,276.292 114.618 M279.625 114.618 C 279.831 114.657,280.169 114.657,280.375 114.618 C 280.581 114.578,280.412 114.545,280.000 114.545 C 279.587 114.545,279.419 114.578,279.625 114.618 M282.958 114.618 C 283.165 114.657,283.502 114.657,283.708 114.618 C 283.915 114.578,283.746 114.545,283.333 114.545 C 282.921 114.545,282.752 114.578,282.958 114.618 M286.292 114.618 C 286.498 114.657,286.835 114.657,287.042 114.618 C 287.248 114.578,287.079 114.545,286.667 114.545 C 286.254 114.545,286.085 114.578,286.292 114.618 M289.625 114.618 C 289.831 114.657,290.169 114.657,290.375 114.618 C 290.581 114.578,290.412 114.545,290.000 114.545 C 289.587 114.545,289.419 114.578,289.625 114.618 M292.958 114.618 C 293.165 114.657,293.502 114.657,293.708 114.618 C 293.915 114.578,293.746 114.545,293.333 114.545 C 292.921 114.545,292.752 114.578,292.958 114.618 M296.292 114.618 C 296.498 114.657,296.835 114.657,297.042 114.618 C 297.248 114.578,297.079 114.545,296.667 114.545 C 296.254 114.545,296.085 114.578,296.292 114.618 M299.625 114.618 C 299.831 114.657,300.169 114.657,300.375 114.618 C 300.581 114.578,300.412 114.545,300.000 114.545 C 299.587 114.545,299.419 114.578,299.625 114.618 M303.042 114.619 C 303.294 114.658,303.706 114.658,303.958 114.619 C 304.210 114.581,304.004 114.550,303.500 114.550 C 302.996 114.550,302.790 114.581,303.042 114.619 M346.123 114.954 C 346.276 115.063,346.340 116.383,346.376 120.175 L 346.424 125.250 346.420 120.097 C 346.417 115.660,346.382 114.935,346.167 114.876 C 345.984 114.826,345.972 114.847,346.123 114.954 M358.372 119.958 L 358.412 125.083 358.458 120.092 C 358.493 116.355,358.557 115.067,358.711 114.969 C 358.856 114.877,358.830 114.838,358.625 114.836 C 358.353 114.834,358.336 115.173,358.372 119.958 " stroke="none" fill="#baab9d" fill-rule="evenodd"></path><path id="path3" d="M351.000 9.291 C 332.224 9.902,321.415 18.931,319.226 35.833 C 318.873 38.556,318.684 78.418,318.993 84.899 C 319.822 102.302,328.786 112.641,344.667 114.509 C 345.537 114.611,346.301 114.745,346.363 114.806 C 346.425 114.867,346.500 117.354,346.529 120.333 C 346.589 126.330,346.594 126.357,347.831 127.913 C 350.057 130.715,355.378 130.622,357.214 127.750 C 358.287 126.071,358.333 125.751,358.333 119.986 L 358.333 114.722 360.375 114.449 C 363.499 114.032,367.427 112.918,369.712 111.801 C 370.426 111.452,371.049 111.167,371.097 111.167 C 371.653 111.167,375.647 108.338,377.610 106.554 C 381.499 103.021,384.348 97.535,385.430 91.500 C 385.587 90.629,385.789 89.542,385.881 89.083 C 386.135 87.814,386.244 39.105,385.998 36.750 C 384.734 24.636,379.556 16.975,369.667 12.588 C 364.495 10.294,357.600 9.076,351.000 9.291 M18.208 9.448 C 18.369 9.490,18.631 9.490,18.792 9.448 C 18.952 9.406,18.821 9.372,18.500 9.372 C 18.179 9.372,18.048 9.406,18.208 9.448 M22.627 9.451 C 22.834 9.491,23.134 9.490,23.294 9.448 C 23.453 9.406,23.283 9.374,22.917 9.375 C 22.550 9.377,22.420 9.411,22.627 9.451 M69.375 9.448 C 69.535 9.490,69.798 9.490,69.958 9.448 C 70.119 9.406,69.987 9.372,69.667 9.372 C 69.346 9.372,69.215 9.406,69.375 9.448 M73.875 9.448 C 74.035 9.490,74.298 9.490,74.458 9.448 C 74.619 9.406,74.487 9.372,74.167 9.372 C 73.846 9.372,73.715 9.406,73.875 9.448 M181.708 9.448 C 181.869 9.490,182.131 9.490,182.292 9.448 C 182.452 9.406,182.321 9.372,182.000 9.372 C 181.679 9.372,181.548 9.406,181.708 9.448 M186.208 9.448 C 186.369 9.490,186.631 9.490,186.792 9.448 C 186.952 9.406,186.821 9.372,186.500 9.372 C 186.179 9.372,186.048 9.406,186.208 9.448 M193.582 56.250 C 193.582 79.167,193.601 88.517,193.625 77.028 C 193.649 65.540,193.649 46.790,193.625 35.362 C 193.601 23.934,193.582 33.333,193.582 56.250 M244.749 61.833 C 244.749 87.821,244.768 98.452,244.792 85.458 C 244.815 72.465,244.815 51.202,244.792 38.208 C 244.768 25.215,244.749 35.846,244.749 61.833 M62.541 33.624 L 62.500 52.498 46.208 52.542 L 29.917 52.585 46.214 52.626 C 59.128 52.658,62.527 52.623,62.590 52.458 C 62.633 52.344,62.650 43.813,62.626 33.500 L 62.582 14.750 62.541 33.624 M309.879 15.833 C 309.879 16.246,309.911 16.415,309.951 16.208 C 309.991 16.002,309.991 15.665,309.951 15.458 C 309.911 15.252,309.879 15.421,309.879 15.833 M309.872 18.667 C 309.872 18.987,309.906 19.119,309.948 18.958 C 309.990 18.798,309.990 18.535,309.948 18.375 C 309.906 18.215,309.872 18.346,309.872 18.667 M117.246 40.000 C 117.246 48.021,117.267 51.302,117.292 47.292 C 117.316 43.281,117.316 36.719,117.292 32.708 C 117.267 28.698,117.246 31.979,117.246 40.000 M356.561 25.902 C 362.519 27.002,366.399 31.372,367.411 38.124 C 367.789 40.649,367.795 83.349,367.417 86.200 C 366.696 91.646,363.729 95.799,359.398 97.430 L 358.333 97.830 358.333 93.419 C 358.333 88.622,358.132 87.452,357.118 86.361 C 354.856 83.927,350.131 83.913,347.868 86.333 C 346.715 87.567,346.596 88.163,346.502 93.167 C 346.428 97.123,346.382 97.743,346.167 97.698 C 342.229 96.883,338.540 92.012,337.749 86.583 C 337.386 84.096,337.382 40.608,337.744 37.906 C 338.991 28.603,346.216 23.994,356.561 25.902 M139.708 54.615 C 139.869 54.657,140.131 54.657,140.292 54.615 C 140.452 54.573,140.321 54.539,140.000 54.539 C 139.679 54.539,139.548 54.573,139.708 54.615 M285.708 54.615 C 285.869 54.657,286.131 54.657,286.292 54.615 C 286.452 54.573,286.321 54.539,286.000 54.539 C 285.679 54.539,285.548 54.573,285.708 54.615 M142.833 56.083 C 143.144 56.404,143.436 56.667,143.482 56.667 C 143.528 56.667,143.311 56.404,143.000 56.083 C 142.689 55.762,142.397 55.500,142.351 55.500 C 142.305 55.500,142.522 55.762,142.833 56.083 M288.500 55.552 C 288.500 55.581,288.744 55.825,289.042 56.094 L 289.583 56.583 289.094 56.042 C 288.638 55.537,288.500 55.423,288.500 55.552 M62.581 87.833 C 62.581 99.246,62.601 103.915,62.625 98.208 C 62.649 92.502,62.649 83.165,62.625 77.458 C 62.601 71.752,62.581 76.421,62.581 87.833 M117.206 83.448 C 117.184 91.441,117.223 98.015,117.292 98.058 C 117.405 98.128,117.404 87.912,117.289 74.167 C 117.265 71.279,117.227 75.456,117.206 83.448 M234.212 104.833 C 234.212 105.246,234.245 105.415,234.284 105.208 C 234.324 105.002,234.324 104.665,234.284 104.458 C 234.245 104.252,234.212 104.421,234.212 104.833 M309.875 104.917 C 309.877 105.283,309.911 105.414,309.951 105.206 C 309.991 104.999,309.990 104.699,309.948 104.540 C 309.906 104.380,309.874 104.550,309.875 104.917 M234.212 107.667 C 234.212 108.079,234.245 108.248,234.284 108.042 C 234.324 107.835,234.324 107.498,234.284 107.292 C 234.245 107.085,234.212 107.254,234.212 107.667 M309.879 107.833 C 309.879 108.246,309.911 108.415,309.951 108.208 C 309.991 108.002,309.991 107.665,309.951 107.458 C 309.911 107.252,309.879 107.421,309.879 107.833 M161.573 112.875 L 161.083 113.417 161.625 112.927 C 161.923 112.658,162.167 112.414,162.167 112.385 C 162.167 112.257,162.029 112.370,161.573 112.875 " stroke="none" fill="#505050" fill-rule="evenodd"></path><path id="path4" d="M350.625 9.287 C 350.923 9.324,351.410 9.324,351.708 9.287 C 352.006 9.250,351.762 9.220,351.167 9.220 C 350.571 9.220,350.327 9.250,350.625 9.287 M353.292 9.287 C 353.590 9.324,354.077 9.324,354.375 9.287 C 354.673 9.250,354.429 9.220,353.833 9.220 C 353.238 9.220,352.994 9.250,353.292 9.287 M347.711 9.453 C 347.964 9.491,348.339 9.490,348.544 9.451 C 348.749 9.411,348.542 9.380,348.083 9.381 C 347.625 9.382,347.457 9.415,347.711 9.453 M356.544 9.453 C 356.797 9.491,357.172 9.490,357.377 9.451 C 357.582 9.411,357.375 9.380,356.917 9.381 C 356.458 9.382,356.291 9.415,356.544 9.453 M358.042 9.615 C 358.202 9.657,358.465 9.657,358.625 9.615 C 358.785 9.573,358.654 9.539,358.333 9.539 C 358.012 9.539,357.881 9.573,358.042 9.615 M336.167 12.083 C 335.938 12.214,335.825 12.322,335.917 12.322 C 336.008 12.322,336.271 12.214,336.500 12.083 C 336.729 11.952,336.842 11.845,336.750 11.845 C 336.658 11.845,336.396 11.952,336.167 12.083 M368.500 12.083 C 368.729 12.214,368.992 12.322,369.083 12.322 C 369.175 12.322,369.063 12.214,368.833 12.083 C 368.604 11.952,368.342 11.845,368.250 11.845 C 368.158 11.845,368.271 11.952,368.500 12.083 M11.416 61.750 C 11.416 87.783,11.435 98.409,11.458 85.362 C 11.482 72.315,11.482 51.015,11.458 38.028 C 11.435 25.042,11.416 35.717,11.416 61.750 M81.249 61.667 C 81.249 87.563,81.268 98.156,81.292 85.208 C 81.315 72.260,81.315 51.073,81.292 38.125 C 81.268 25.177,81.249 35.771,81.249 61.667 M98.582 61.750 C 98.582 87.692,98.601 98.279,98.625 85.278 C 98.649 72.277,98.649 51.052,98.625 38.112 C 98.601 25.171,98.582 35.808,98.582 61.750 M174.916 61.750 C 174.916 87.508,174.935 98.021,174.958 85.112 C 174.982 72.202,174.982 51.127,174.958 38.278 C 174.935 25.429,174.916 35.992,174.916 61.750 M374.333 15.052 C 374.333 15.093,374.609 15.337,374.945 15.594 C 375.282 15.850,375.504 15.975,375.440 15.871 C 375.308 15.658,374.333 14.936,374.333 15.052 M377.917 18.000 C 378.461 18.550,378.944 19.000,378.990 19.000 C 379.035 19.000,378.628 18.550,378.083 18.000 C 377.539 17.450,377.056 17.000,377.010 17.000 C 376.965 17.000,377.372 17.450,377.917 18.000 M127.555 25.625 C 133.222 25.649,142.447 25.649,148.055 25.625 C 153.662 25.601,149.025 25.581,137.750 25.581 C 126.475 25.581,121.887 25.601,127.555 25.625 M263.410 25.708 C 263.366 25.823,263.350 32.329,263.374 40.167 L 263.417 54.417 274.500 54.418 L 285.583 54.420 274.542 54.376 L 263.500 54.331 263.500 39.999 L 263.500 25.668 283.958 25.625 L 304.417 25.582 283.953 25.541 C 267.705 25.508,263.473 25.543,263.410 25.708 M351.292 25.623 C 351.865 25.656,352.802 25.656,353.375 25.623 C 353.948 25.591,353.479 25.564,352.333 25.564 C 351.188 25.564,350.719 25.591,351.292 25.623 M357.917 26.333 C 358.100 26.412,358.363 26.477,358.500 26.477 C 358.658 26.477,358.627 26.424,358.417 26.333 C 358.233 26.255,357.971 26.190,357.833 26.190 C 357.676 26.190,357.707 26.243,357.917 26.333 M362.000 28.219 C 362.000 28.248,362.244 28.491,362.542 28.760 L 363.083 29.250 362.594 28.708 C 362.138 28.203,362.000 28.090,362.000 28.219 M384.523 29.167 C 384.523 29.304,384.588 29.567,384.667 29.750 C 384.757 29.960,384.810 29.991,384.810 29.833 C 384.810 29.696,384.745 29.433,384.667 29.250 C 384.576 29.040,384.523 29.009,384.523 29.167 M318.893 39.833 C 318.893 40.704,318.922 41.060,318.956 40.625 C 318.990 40.190,318.990 39.477,318.956 39.042 C 318.922 38.606,318.893 38.962,318.893 39.833 M386.248 62.000 C 386.248 74.971,386.267 80.277,386.292 73.792 C 386.316 67.306,386.316 56.694,386.292 50.208 C 386.267 43.723,386.248 49.029,386.248 62.000 M337.545 39.833 C 337.545 40.246,337.578 40.415,337.618 40.208 C 337.657 40.002,337.657 39.665,337.618 39.458 C 337.578 39.252,337.545 39.421,337.545 39.833 M367.542 39.917 C 367.544 40.283,367.578 40.414,367.618 40.206 C 367.658 39.999,367.656 39.699,367.615 39.540 C 367.573 39.380,367.540 39.550,367.542 39.917 M122.887 54.458 C 125.988 54.484,131.013 54.484,134.054 54.458 C 137.095 54.433,134.558 54.412,128.417 54.412 C 122.275 54.412,119.787 54.433,122.887 54.458 M38.029 67.292 C 42.491 67.316,49.841 67.316,54.362 67.292 C 58.884 67.267,55.233 67.247,46.250 67.247 C 37.267 67.247,33.567 67.267,38.029 67.292 M122.887 69.125 C 125.988 69.150,131.013 69.150,134.054 69.125 C 137.095 69.099,134.558 69.079,128.417 69.079 C 122.275 69.079,119.787 69.100,122.887 69.125 M263.410 69.208 C 263.366 69.323,263.350 75.867,263.374 83.750 L 263.417 98.083 284.125 98.084 L 304.833 98.085 284.167 98.042 L 263.500 97.999 263.500 83.584 L 263.500 69.169 274.625 69.125 L 285.750 69.081 274.620 69.040 C 265.839 69.009,263.473 69.044,263.410 69.208 M318.893 84.833 C 318.893 85.704,318.922 86.060,318.956 85.625 C 318.990 85.190,318.990 84.477,318.956 84.042 C 318.922 83.606,318.893 83.962,318.893 84.833 M367.545 84.167 C 367.545 84.579,367.578 84.748,367.618 84.542 C 367.657 84.335,367.657 83.998,367.618 83.792 C 367.578 83.585,367.545 83.754,367.545 84.167 M337.545 84.667 C 337.545 85.079,337.578 85.248,337.618 85.042 C 337.657 84.835,337.657 84.498,337.618 84.292 C 337.578 84.085,337.545 84.254,337.545 84.667 M352.044 84.453 C 352.297 84.491,352.672 84.490,352.877 84.451 C 353.082 84.411,352.875 84.380,352.417 84.381 C 351.958 84.382,351.791 84.415,352.044 84.453 M350.500 84.669 C 350.324 84.784,350.423 84.801,350.833 84.726 C 351.552 84.594,351.688 84.499,351.153 84.503 C 350.931 84.504,350.637 84.579,350.500 84.669 M353.514 84.559 C 353.552 84.592,353.846 84.667,354.167 84.726 C 354.577 84.801,354.676 84.784,354.500 84.669 C 354.274 84.521,353.349 84.418,353.514 84.559 M319.039 87.500 C 319.039 87.821,319.073 87.952,319.115 87.792 C 319.157 87.631,319.157 87.369,319.115 87.208 C 319.073 87.048,319.039 87.179,319.039 87.500 M364.500 93.500 C 364.304 93.775,364.181 94.000,364.227 94.000 C 364.273 94.000,364.471 93.775,364.667 93.500 C 364.862 93.225,364.985 93.000,364.939 93.000 C 364.894 93.000,364.696 93.225,364.500 93.500 M340.500 93.667 C 340.696 93.942,340.894 94.167,340.939 94.167 C 340.985 94.167,340.862 93.942,340.667 93.667 C 340.471 93.392,340.273 93.167,340.227 93.167 C 340.181 93.167,340.304 93.392,340.500 93.667 M384.595 94.762 C 384.534 95.006,384.516 95.238,384.555 95.277 C 384.594 95.317,384.677 95.149,384.738 94.905 C 384.799 94.661,384.817 94.429,384.778 94.389 C 384.739 94.350,384.657 94.518,384.595 94.762 M362.909 95.208 L 362.250 95.917 362.958 95.258 C 363.617 94.645,363.743 94.500,363.617 94.500 C 363.590 94.500,363.271 94.819,362.909 95.208 M127.695 98.125 C 133.349 98.149,142.649 98.149,148.362 98.125 C 154.075 98.101,149.450 98.081,138.083 98.081 C 126.717 98.081,122.042 98.101,127.695 98.125 M202.542 98.125 C 207.469 98.149,215.531 98.149,220.458 98.125 C 225.385 98.100,221.354 98.080,211.500 98.080 C 201.646 98.080,197.615 98.100,202.542 98.125 M326.417 106.000 C 326.868 106.458,327.275 106.833,327.321 106.833 C 327.367 106.833,327.035 106.458,326.583 106.000 C 326.132 105.542,325.725 105.167,325.679 105.167 C 325.633 105.167,325.965 105.542,326.417 106.000 M376.740 107.375 L 376.250 107.917 376.792 107.427 C 377.297 106.971,377.410 106.833,377.281 106.833 C 377.252 106.833,377.009 107.077,376.740 107.375 M374.660 109.012 L 374.083 109.524 374.708 109.076 C 375.261 108.679,375.440 108.500,375.285 108.500 C 375.259 108.500,374.978 108.730,374.660 109.012 M332.000 110.408 C 332.000 110.454,332.225 110.608,332.500 110.750 C 332.775 110.892,333.000 110.971,333.000 110.925 C 333.000 110.879,332.775 110.726,332.500 110.583 C 332.225 110.441,332.000 110.362,332.000 110.408 M370.500 111.417 C 370.271 111.548,370.158 111.655,370.250 111.655 C 370.342 111.655,370.604 111.548,370.833 111.417 C 371.063 111.286,371.175 111.178,371.083 111.178 C 370.992 111.178,370.729 111.286,370.500 111.417 M362.917 114.000 C 362.707 114.090,362.676 114.143,362.833 114.143 C 362.971 114.143,363.233 114.079,363.417 114.000 C 363.627 113.910,363.658 113.857,363.500 113.857 C 363.363 113.857,363.100 113.921,362.917 114.000 M20.292 114.451 C 20.498 114.491,20.835 114.491,21.042 114.451 C 21.248 114.411,21.079 114.379,20.667 114.379 C 20.254 114.379,20.085 114.411,20.292 114.451 M71.458 114.451 C 71.665 114.491,72.002 114.491,72.208 114.451 C 72.415 114.411,72.246 114.379,71.833 114.379 C 71.421 114.379,71.252 114.411,71.458 114.451 M119.221 114.458 C 126.447 114.482,138.222 114.482,145.388 114.458 C 152.554 114.434,146.642 114.415,132.250 114.415 C 117.858 114.415,111.995 114.434,119.221 114.458 M194.125 114.458 C 200.565 114.482,211.102 114.482,217.542 114.458 C 223.981 114.434,218.713 114.414,205.833 114.414 C 192.954 114.414,187.685 114.434,194.125 114.458 M265.375 114.458 C 272.594 114.482,284.406 114.482,291.625 114.458 C 298.844 114.434,292.938 114.415,278.500 114.415 C 264.063 114.415,258.156 114.434,265.375 114.458 M357.934 126.276 C 357.785 126.713,357.729 126.998,357.809 126.910 C 357.994 126.707,358.356 125.634,358.269 125.547 C 358.234 125.511,358.082 125.839,357.934 126.276 " stroke="none" fill="#8f8f8f" fill-rule="evenodd"></path></g></svg>