<svg width="258" height="44" viewBox="0 0 258 44" fill="none" xmlns="http://www.w3.org/2000/svg">
<g clip-path="url(#clip0_327_828)">
<path d="M68.88 22.8C69.38 22.45 69.76 22 70.04 21.44C70.32 20.88 70.46 20.2 70.46 19.4C70.46 18.22 70.19 17.25 69.65 16.49C69.11 15.73 68.36 15.18 67.39 14.82C66.42 14.46 65.29 14.28 63.98 14.28H52.52V31.17H55.99V24.93H62.54C63.64 24.93 64.48 25 65.06 25.14C65.64 25.28 66.05 25.53 66.27 25.88C66.5 26.24 66.61 26.74 66.61 27.38V31.16H70.08V27.14C70.08 26.2 69.88 25.49 69.49 25.01C69.1 24.53 68.51 24.2 67.73 24.02C67.29 23.92 66.78 23.84 66.21 23.79C66.54 23.73 66.85 23.66 67.16 23.57C67.8 23.39 68.37 23.12 68.87 22.77L68.88 22.8ZM66.22 21.52C65.71 21.99 64.96 22.22 63.99 22.22H56V17.26H63.99C64.96 17.26 65.71 17.46 66.22 17.86C66.73 18.26 66.99 18.84 66.99 19.61C66.99 20.38 66.73 21.05 66.22 21.52ZM85.51 18.7C84.28 18.18 82.85 17.92 81.22 17.92C79.59 17.92 78.14 18.18 76.9 18.7C75.66 19.22 74.69 19.99 73.99 21.01C73.29 22.03 72.95 23.27 72.95 24.73C72.95 26.19 73.3 27.42 73.99 28.42C74.69 29.42 75.66 30.18 76.9 30.7C78.14 31.22 79.58 31.48 81.22 31.48C82.86 31.48 84.29 31.22 85.51 30.7C86.74 30.18 87.7 29.42 88.39 28.42C89.09 27.42 89.43 26.19 89.43 24.73C89.43 23.27 89.08 22.03 88.39 21.01C87.69 19.99 86.73 19.22 85.51 18.7ZM85.37 26.99C84.95 27.61 84.38 28.08 83.66 28.4C82.94 28.72 82.12 28.88 81.22 28.88C80.32 28.88 79.47 28.72 78.74 28.4C78.01 28.08 77.44 27.61 77.02 26.99C76.6 26.37 76.39 25.62 76.39 24.73C76.39 23.84 76.6 23.06 77.03 22.43C77.46 21.8 78.03 21.33 78.77 20.99C79.5 20.66 80.32 20.49 81.22 20.49C82.12 20.49 82.96 20.66 83.67 20.99C84.38 21.32 84.95 21.8 85.37 22.44C85.79 23.08 86 23.84 86 24.72C86 25.6 85.79 26.36 85.37 26.98V26.99ZM106.53 20.86C106.81 21.53 106.95 22.33 106.95 23.25V31.18H103.56V23.85C103.56 22.75 103.29 21.95 102.76 21.44C102.23 20.93 101.36 20.67 100.16 20.67C99.26 20.67 98.44 20.84 97.71 21.19C96.98 21.54 96.39 21.98 95.94 22.51C95.67 22.83 95.47 23.16 95.34 23.49V31.18H91.95V18.21H95.34V21.95C95.44 21.65 95.57 21.35 95.73 21.05C96.04 20.48 96.46 19.95 97 19.47C97.53 18.99 98.16 18.61 98.89 18.33C99.62 18.05 100.45 17.91 101.37 17.91C102.17 17.91 102.91 18.01 103.59 18.22C104.27 18.43 104.86 18.75 105.36 19.19C105.86 19.63 106.26 20.18 106.53 20.85V20.86ZM117.05 12.99H119.74V15.73H117.86C117.36 15.71 116.92 15.77 116.56 15.89C116.19 16.01 115.92 16.23 115.72 16.56C115.53 16.88 115.43 17.34 115.43 17.93V18.45H119.55V21.03H115.43V31.18H112.04V21.03H109.12V18.45H112.04V17.51C112.04 16.47 112.23 15.61 112.61 14.94C112.99 14.27 113.56 13.78 114.31 13.47C115.06 13.16 115.97 13 117.05 13V12.99ZM133.43 18.71C132.2 18.19 130.77 17.93 129.14 17.93C127.51 17.93 126.06 18.19 124.82 18.71C123.58 19.23 122.61 20 121.91 21.02C121.21 22.04 120.87 23.28 120.87 24.74C120.87 26.2 121.22 27.43 121.91 28.43C122.61 29.43 123.58 30.19 124.82 30.71C126.06 31.23 127.5 31.49 129.14 31.49C130.78 31.49 132.21 31.23 133.43 30.71C134.66 30.19 135.62 29.43 136.31 28.43C137.01 27.43 137.35 26.2 137.35 24.74C137.35 23.28 137 22.04 136.31 21.02C135.61 20 134.65 19.23 133.43 18.71ZM133.29 27C132.87 27.62 132.3 28.09 131.58 28.41C130.86 28.73 130.04 28.89 129.14 28.89C128.24 28.89 127.39 28.73 126.66 28.41C125.93 28.09 125.36 27.62 124.94 27C124.52 26.38 124.31 25.63 124.31 24.74C124.31 23.85 124.52 23.07 124.95 22.44C125.38 21.81 125.95 21.34 126.69 21C127.42 20.67 128.24 20.5 129.14 20.5C130.04 20.5 130.88 20.67 131.59 21C132.3 21.33 132.87 21.81 133.29 22.45C133.71 23.09 133.92 23.85 133.92 24.73C133.92 25.61 133.71 26.37 133.29 26.99V27ZM146.23 18.35C146.8 18.07 147.47 17.93 148.24 17.93V21.01C147.27 21.01 146.42 21.2 145.71 21.57C145 21.94 144.42 22.4 143.99 22.94C143.68 23.33 143.44 23.7 143.26 24.07V31.19H139.87V18.22H143.26V22.15C143.38 21.74 143.56 21.3 143.81 20.82C144.05 20.34 144.38 19.88 144.78 19.44C145.18 19 145.67 18.64 146.24 18.36L146.23 18.35ZM162.72 13V22.11C162.72 22.11 162.72 22.07 162.71 22.06C162.48 21.24 162.11 20.52 161.6 19.91C161.1 19.29 160.43 18.81 159.62 18.46C158.8 18.11 157.81 17.94 156.65 17.94C155.31 17.94 154.12 18.22 153.07 18.79C152.03 19.36 151.2 20.14 150.6 21.15C150 22.16 149.7 23.35 149.7 24.73C149.7 26.11 150 27.25 150.61 28.27C151.22 29.29 152.05 30.08 153.1 30.65C154.15 31.22 155.33 31.5 156.64 31.5C157.79 31.5 158.77 31.3 159.59 30.89C160.41 30.48 161.07 29.94 161.57 29.27C162.07 28.6 162.45 27.87 162.69 27.08C162.69 27.05 162.71 27.02 162.72 26.98V27.87C162.72 28.43 162.75 29.02 162.8 29.66C162.85 30.3 162.9 30.81 162.96 31.21H166.12V12.98H162.73L162.72 13ZM162.12 26.88C161.72 27.51 161.15 27.99 160.4 28.34C159.65 28.69 158.76 28.86 157.74 28.86C156.84 28.86 156.04 28.69 155.35 28.34C154.66 27.99 154.13 27.51 153.74 26.89C153.36 26.27 153.17 25.55 153.17 24.71C153.17 23.46 153.57 22.45 154.37 21.68C155.17 20.91 156.29 20.53 157.74 20.53C158.77 20.53 159.65 20.7 160.39 21.03C161.13 21.36 161.7 21.83 162.11 22.45C162.52 23.07 162.72 23.82 162.72 24.71C162.72 25.53 162.52 26.25 162.12 26.88Z" fill="#00504A"/>
<path d="M187.65 16.81C186.89 16.04 185.88 15.42 184.61 14.97C183.34 14.52 181.76 14.29 179.86 14.29H170.2V31.18H179.86C181.67 31.18 183.2 30.95 184.47 30.49C185.73 30.03 186.75 29.4 187.52 28.61C188.29 27.82 188.86 26.91 189.22 25.88C189.58 24.85 189.75 23.78 189.75 22.67C189.75 21.56 189.59 20.5 189.27 19.49C188.95 18.48 188.41 17.59 187.65 16.82V16.81ZM185.91 24.73C185.7 25.39 185.35 25.98 184.87 26.5C184.38 27.02 183.73 27.44 182.9 27.74C182.07 28.04 181.03 28.2 179.78 28.2H173.67V17.27H179.78C181.03 17.27 182.07 17.42 182.9 17.71C183.73 18.01 184.38 18.41 184.87 18.91C185.36 19.41 185.7 19.99 185.91 20.63C186.12 21.27 186.22 21.95 186.22 22.67C186.22 23.39 186.12 24.07 185.91 24.73ZM192.64 12.52H196.58V15.5H192.64V12.52ZM192.9 18.21H196.29V31.18H192.9V18.21ZM207.32 18C206.95 17.95 206.56 17.92 206.16 17.92C204.72 17.92 203.46 18.15 202.39 18.62C201.32 19.09 200.5 19.75 199.92 20.6C199.35 21.45 199.06 22.46 199.06 23.63C199.06 24.8 199.36 25.82 199.95 26.66C200.54 27.5 201.37 28.13 202.44 28.55C202.76 28.68 203.09 28.78 203.43 28.87C202.92 28.87 202.44 28.91 201.98 28.98C201.21 29.1 200.61 29.34 200.15 29.7C199.7 30.06 199.47 30.58 199.47 31.28C199.47 31.63 199.54 31.95 199.68 32.26C199.82 32.56 200.05 32.83 200.36 33.06C200.67 33.29 201.1 33.46 201.63 33.58C202.16 33.7 202.82 33.76 203.6 33.76H207.65C208.54 33.76 209.24 33.92 209.75 34.23C210.26 34.54 210.52 35.1 210.52 35.9V36.53H213.91V35.3C213.91 34.26 213.69 33.43 213.26 32.83C212.82 32.23 212.19 31.8 211.37 31.55C210.54 31.3 209.55 31.17 208.38 31.17H204.13C203.75 31.17 203.45 31.1 203.24 30.95C203.03 30.8 202.93 30.6 202.93 30.34C202.93 29.91 203.2 29.61 203.73 29.47C204.26 29.32 205.07 29.23 206.17 29.2C207.61 29.2 208.86 28.99 209.92 28.56C210.97 28.13 211.79 27.52 212.36 26.71C212.93 25.9 213.22 24.93 213.22 23.8C213.22 23.1 213.06 22.49 212.74 21.96C212.42 21.43 212 20.96 211.47 20.55C211.21 20.35 210.94 20.16 210.67 19.99C211.17 20.16 211.71 20.32 212.3 20.47C213.21 20.7 214.11 20.81 215 20.8V18.24L208.45 18.21C208.08 18.12 207.71 18.05 207.34 18H207.32ZM209.45 21.97C209.76 22.44 209.92 23.01 209.92 23.67C209.92 24.33 209.76 24.87 209.45 25.33C209.14 25.79 208.7 26.14 208.13 26.39C207.56 26.63 206.91 26.76 206.16 26.76C205.41 26.76 204.73 26.64 204.16 26.39C203.59 26.15 203.16 25.79 202.84 25.33C202.53 24.87 202.37 24.32 202.37 23.67C202.37 23.02 202.53 22.44 202.84 21.97C203.15 21.5 203.6 21.14 204.17 20.89C204.74 20.64 205.41 20.51 206.15 20.51C206.89 20.51 207.58 20.64 208.13 20.89C208.69 21.14 209.12 21.5 209.43 21.97H209.45ZM217.41 18.21H220.8V31.18H217.41V18.21ZM217.15 12.52H221.09V15.5H217.15V12.52ZM230.02 18.21H233.36V20.85H230.02V31.18H226.63V20.85H223.29V18.21H226.63V14.66H230.02V18.21ZM247.74 22.11C247.66 21.82 247.56 21.54 247.45 21.27C247.03 20.24 246.37 19.43 245.45 18.83C244.54 18.23 243.33 17.93 241.84 17.93C240.48 17.93 239.27 18.21 238.2 18.78C237.13 19.35 236.28 20.13 235.66 21.14C235.03 22.15 234.72 23.34 234.72 24.72C234.72 26.1 235.03 27.24 235.65 28.26C236.27 29.28 237.1 30.07 238.16 30.64C239.21 31.21 240.38 31.49 241.67 31.49C242.82 31.49 243.8 31.29 244.62 30.88C245.44 30.47 246.1 29.93 246.6 29.26C247.1 28.59 247.48 27.86 247.72 27.07C247.72 27.04 247.74 27.01 247.75 26.97V27.86C247.75 28.36 247.77 28.88 247.8 29.4C247.83 29.92 247.9 30.52 247.98 31.2H251.14V18.23H247.75V22.13L247.74 22.11ZM247.14 26.88C246.74 27.51 246.17 27.99 245.42 28.34C244.67 28.69 243.78 28.86 242.76 28.86C241.85 28.86 241.06 28.69 240.37 28.34C239.68 27.99 239.15 27.51 238.76 26.89C238.38 26.27 238.19 25.55 238.19 24.71C238.19 23.46 238.59 22.45 239.39 21.7C240.19 20.94 241.31 20.56 242.76 20.56C243.79 20.56 244.67 20.72 245.41 21.04C246.15 21.36 246.72 21.83 247.13 22.45C247.54 23.07 247.74 23.82 247.74 24.71C247.74 25.53 247.54 26.25 247.14 26.88ZM257.87 13V31.19H254.48V12.98H257.87V13Z" fill="#009997"/>
<path d="M22 44C34.1503 44 44 34.1503 44 22C44 9.84974 34.1503 0 22 0C9.84974 0 0 9.84974 0 22C0 34.1503 9.84974 44 22 44Z" fill="url(#paint0_linear_327_828)"/>
<path d="M14.1699 26.77C16.8043 26.77 18.9399 24.6344 18.9399 22C18.9399 19.3656 16.8043 17.23 14.1699 17.23C11.5355 17.23 9.3999 19.3656 9.3999 22C9.3999 24.6344 11.5355 26.77 14.1699 26.77Z" fill="#B1E0E2"/>
<path d="M21.0599 8.45999L17.3899 12.13L24.1599 15.23L21.0599 8.45999Z" fill="#7DCDCF"/>
<path d="M17.3899 31.87L21.0599 35.54L24.1599 28.77L17.3899 31.87Z" fill="#7DCDCF"/>
<path d="M21.0598 8.45999L24.1598 15.23L30.9298 18.33L21.0598 8.45999Z" fill="#B1E0E2"/>
<path d="M24.1599 15.23L17.3899 12.13L27.2599 22L24.1599 15.23Z" fill="#B1E0E2"/>
<path d="M24.1598 28.77L21.0598 35.54L30.9298 25.67L24.1598 28.77Z" fill="#B1E0E2"/>
<path d="M17.3899 31.87L24.1599 28.77L27.2599 22L17.3899 31.87Z" fill="#B1E0E2"/>
<path d="M24.1599 15.23L27.2599 22L30.9299 18.33L24.1599 15.23Z" fill="#E0F2F4"/>
<path d="M27.2599 22L24.1599 28.77L30.9299 25.67L27.2599 22Z" fill="#E0F2F4"/>
<path d="M30.93 18.33L27.26 22L30.93 25.67L34.6 22L30.93 18.33Z" fill="white"/>
</g>
<defs>
<linearGradient id="paint0_linear_327_828" x1="11" y1="41.06" x2="33" y2="2.94" gradientUnits="userSpaceOnUse">
<stop stop-color="#00504A"/>
<stop offset="0.38" stop-color="#006C68"/>
<stop offset="0.84" stop-color="#009997"/>
</linearGradient>
<clipPath id="clip0_327_828">
<rect width="258" height="44" fill="white"/>
</clipPath>
</defs>
</svg>
